<?xml version="1.0" standalone="no"?><!DOCTYPE svg PUBLIC "-//W3C//DTD SVG 1.1//EN" "http://www.w3.org/Graphics/SVG/1.1/DTD/svg11.dtd"><svg t="1627956986958" class="icon" viewBox="0 0 1024 1024" version="1.1" xmlns="http://www.w3.org/2000/svg" p-id="930" xmlns:xlink="http://www.w3.org/1999/xlink" width="32" height="32"><defs><style type="text/css"></style></defs><path d="M84.5 327.7l398-255.5c17.2-11 40.3-11 57.5 0l399.5 255.6c27.7 17.7 27.7 54.7 0 72.4L541 655.6c-17.2 11-40.3 11-57.5 0L84.5 400c-27.6-17.7-27.6-54.6 0-72.3z" p-id="931"></path><path d="M512.6 812.7c-16.6 0-33.2-4.6-47.7-13.9L102.2 566.4c-23.3-15-37.3-39.8-37.3-66.6 0-26.7 13.9-51.6 37.2-66.6l21.6 33.7-21.6-33.7L464 201c29-18.6 66.4-18.6 95.4-0.1l363.2 232.4c23.4 15 37.3 39.8 37.3 66.6 0 26.7-13.9 51.6-37.3 66.6L560.4 798.8c-14.5 9.3-31.1 13.9-47.8 13.9zM150.5 497.3c-1.9 1.2-1.9 3.9 0 5.1l357.6 229c2.5 1.6 6.6 1.6 9.1 0l356.2-228.3c2.3-1.5 2.3-4.9 0-6.4L516.3 268.3c-2.5-1.6-6.6-1.6-9.1 0l-356.7 229z" p-id="932"></path><path d="M922.7 580.3l-11.6-7.4c-0.8-0.5-1.7-0.7-2.6-0.7H785.2c-0.9 0-1.8 0.3-2.6 0.8-1.2 0.8-2.5 1.6-3.7 2.4-2.9 1.9-2.9 6.1 0 8l93.2 59.6c2.9 1.9 2.9 6.1 0 8L517.2 878.4c-2.5 1.6-6.6 1.6-9.1 0L152.8 650.8c-2.9-1.9-2.9-6.1 0-8l96.2-61.7c3.4-2.2 2.7-7.5-1.3-8.5h-0.1c-0.2-0.1-0.4-0.1-0.6-0.2-0.5-0.2-1-0.3-1.6-0.3H116.3c-0.9 0-1.8 0.3-2.6 0.8l-11.6 7.4c-23.3 15-37.2 39.9-37.2 66.6 0 26.7 14 51.6 37.3 66.6L465 945.9c14.5 9.3 31.1 13.9 47.7 13.9s33.2-4.6 47.7-13.9l362.4-232.3c23.4-15 37.3-39.9 37.3-66.6-0.1-26.9-14.1-51.8-37.4-66.7z" p-id="933"></path></svg>